<mxfile host="app.diagrams.net" modified="2024-02-05T08:41:31.210Z" agent="Mozilla/5.0 (Windows NT 10.0; Win64; x64) AppleWebKit/537.36 (KHTML, like Gecko) Chrome/120.0.0.0 Safari/537.36 OPR/106.0.0.0" etag="dyG-RxLtvzwb8qwqAo2j" version="23.1.1" type="github">
  <diagram name="Сторінка-1" id="E9zWhSGrvhwnr94Sfmps">
    <mxGraphModel dx="870" dy="747" grid="1" gridSize="10" guides="1" tooltips="1" connect="1" arrows="1" fold="1" page="1" pageScale="1" pageWidth="827" pageHeight="1169" math="0" shadow="0">
      <root>
        <mxCell id="0" />
        <mxCell id="1" parent="0" />
        <mxCell id="yMxyKzQ8elcNPwjbgPWU-1" value="Actor" style="shape=umlActor;verticalLabelPosition=bottom;verticalAlign=top;html=1;outlineConnect=0;" parent="1" vertex="1">
          <mxGeometry x="100" y="320" width="30" height="60" as="geometry" />
        </mxCell>
        <mxCell id="yMxyKzQ8elcNPwjbgPWU-2" value="фільтрувати лоти" style="ellipse;whiteSpace=wrap;html=1;" parent="1" vertex="1">
          <mxGeometry x="170" y="130" width="120" height="80" as="geometry" />
        </mxCell>
        <mxCell id="yMxyKzQ8elcNPwjbgPWU-3" value="переглянути інформацію про лот" style="ellipse;whiteSpace=wrap;html=1;" parent="1" vertex="1">
          <mxGeometry x="340" y="250" width="120" height="80" as="geometry" />
        </mxCell>
        <mxCell id="yMxyKzQ8elcNPwjbgPWU-4" value="додати свою ціну" style="ellipse;whiteSpace=wrap;html=1;" parent="1" vertex="1">
          <mxGeometry x="510" y="70" width="120" height="80" as="geometry" />
        </mxCell>
        <mxCell id="yMxyKzQ8elcNPwjbgPWU-5" value="встановити мінімальну ціну" style="ellipse;whiteSpace=wrap;html=1;" parent="1" vertex="1">
          <mxGeometry x="490" y="340" width="120" height="80" as="geometry" />
        </mxCell>
        <mxCell id="yMxyKzQ8elcNPwjbgPWU-6" value="додати інформацію про слот" style="ellipse;whiteSpace=wrap;html=1;" parent="1" vertex="1">
          <mxGeometry x="340" y="490" width="120" height="80" as="geometry" />
        </mxCell>
        <mxCell id="yMxyKzQ8elcNPwjbgPWU-7" value="створити лот" style="ellipse;whiteSpace=wrap;html=1;" parent="1" vertex="1">
          <mxGeometry x="270" y="360" width="120" height="80" as="geometry" />
        </mxCell>
        <mxCell id="yMxyKzQ8elcNPwjbgPWU-8" value="приймати участь" style="ellipse;whiteSpace=wrap;html=1;" parent="1" vertex="1">
          <mxGeometry x="340" y="140" width="120" height="80" as="geometry" />
        </mxCell>
        <mxCell id="yMxyKzQ8elcNPwjbgPWU-9" value="" style="endArrow=none;html=1;rounded=0;entryX=0.175;entryY=0.95;entryDx=0;entryDy=0;entryPerimeter=0;" parent="1" source="yMxyKzQ8elcNPwjbgPWU-1" target="yMxyKzQ8elcNPwjbgPWU-2" edge="1">
          <mxGeometry width="50" height="50" relative="1" as="geometry">
            <mxPoint x="150" y="310" as="sourcePoint" />
            <mxPoint x="200" y="260" as="targetPoint" />
          </mxGeometry>
        </mxCell>
        <mxCell id="yMxyKzQ8elcNPwjbgPWU-10" value="" style="endArrow=none;html=1;rounded=0;entryX=0.1;entryY=0.888;entryDx=0;entryDy=0;entryPerimeter=0;" parent="1" source="yMxyKzQ8elcNPwjbgPWU-1" target="yMxyKzQ8elcNPwjbgPWU-8" edge="1">
          <mxGeometry width="50" height="50" relative="1" as="geometry">
            <mxPoint x="180" y="360" as="sourcePoint" />
            <mxPoint x="230" y="310" as="targetPoint" />
          </mxGeometry>
        </mxCell>
        <mxCell id="yMxyKzQ8elcNPwjbgPWU-11" value="" style="endArrow=none;html=1;rounded=0;exitX=0.5;exitY=0.5;exitDx=0;exitDy=0;exitPerimeter=0;entryX=0;entryY=0.5;entryDx=0;entryDy=0;" parent="1" source="yMxyKzQ8elcNPwjbgPWU-1" target="yMxyKzQ8elcNPwjbgPWU-3" edge="1">
          <mxGeometry width="50" height="50" relative="1" as="geometry">
            <mxPoint x="280" y="360" as="sourcePoint" />
            <mxPoint x="330" y="310" as="targetPoint" />
          </mxGeometry>
        </mxCell>
        <mxCell id="yMxyKzQ8elcNPwjbgPWU-16" value="include" style="endArrow=classic;dashed=1;html=1;rounded=0;startArrow=none;startFill=0;endFill=1;exitX=0.967;exitY=0.363;exitDx=0;exitDy=0;exitPerimeter=0;" parent="1" source="yMxyKzQ8elcNPwjbgPWU-8" target="yMxyKzQ8elcNPwjbgPWU-4" edge="1">
          <mxGeometry width="50" height="50" relative="1" as="geometry">
            <mxPoint x="670" y="180" as="sourcePoint" />
            <mxPoint x="540" y="160" as="targetPoint" />
          </mxGeometry>
        </mxCell>
        <mxCell id="yMxyKzQ8elcNPwjbgPWU-19" value="вибрати лот" style="ellipse;whiteSpace=wrap;html=1;" parent="1" vertex="1">
          <mxGeometry x="524" y="190" width="120" height="80" as="geometry" />
        </mxCell>
        <mxCell id="yMxyKzQ8elcNPwjbgPWU-20" value="include" style="endArrow=classic;dashed=1;html=1;rounded=0;startArrow=none;startFill=0;endFill=1;exitX=1.008;exitY=0.388;exitDx=0;exitDy=0;exitPerimeter=0;" parent="1" source="yMxyKzQ8elcNPwjbgPWU-3" target="yMxyKzQ8elcNPwjbgPWU-19" edge="1">
          <mxGeometry width="50" height="50" relative="1" as="geometry">
            <mxPoint x="470" y="289" as="sourcePoint" />
            <mxPoint x="554" y="280" as="targetPoint" />
          </mxGeometry>
        </mxCell>
        <mxCell id="yMxyKzQ8elcNPwjbgPWU-21" value="вибрати лот" style="ellipse;whiteSpace=wrap;html=1;" parent="1" vertex="1">
          <mxGeometry x="680" y="30" width="120" height="80" as="geometry" />
        </mxCell>
        <mxCell id="yMxyKzQ8elcNPwjbgPWU-23" value="" style="endArrow=none;html=1;rounded=0;entryX=0.033;entryY=0.388;entryDx=0;entryDy=0;entryPerimeter=0;" parent="1" source="yMxyKzQ8elcNPwjbgPWU-1" target="yMxyKzQ8elcNPwjbgPWU-7" edge="1">
          <mxGeometry width="50" height="50" relative="1" as="geometry">
            <mxPoint x="120" y="440" as="sourcePoint" />
            <mxPoint x="170" y="390" as="targetPoint" />
          </mxGeometry>
        </mxCell>
        <mxCell id="yMxyKzQ8elcNPwjbgPWU-24" value="include" style="endArrow=classic;dashed=1;html=1;rounded=0;startArrow=none;startFill=0;endFill=1;exitX=1;exitY=0.5;exitDx=0;exitDy=0;entryX=-0.008;entryY=0.6;entryDx=0;entryDy=0;entryPerimeter=0;" parent="1" source="yMxyKzQ8elcNPwjbgPWU-7" target="yMxyKzQ8elcNPwjbgPWU-5" edge="1">
          <mxGeometry width="50" height="50" relative="1" as="geometry">
            <mxPoint x="404" y="415" as="sourcePoint" />
            <mxPoint x="480" y="390" as="targetPoint" />
          </mxGeometry>
        </mxCell>
        <mxCell id="yMxyKzQ8elcNPwjbgPWU-25" value="встановити мінімальне підвищення ціни&lt;br&gt;" style="ellipse;whiteSpace=wrap;html=1;" parent="1" vertex="1">
          <mxGeometry x="490" y="440" width="120" height="80" as="geometry" />
        </mxCell>
        <mxCell id="yMxyKzQ8elcNPwjbgPWU-26" value="include" style="endArrow=classic;dashed=1;html=1;rounded=0;startArrow=none;startFill=0;endFill=1;exitX=0.867;exitY=0.938;exitDx=0;exitDy=0;entryX=-0.008;entryY=0.6;entryDx=0;entryDy=0;entryPerimeter=0;exitPerimeter=0;" parent="1" source="yMxyKzQ8elcNPwjbgPWU-7" target="yMxyKzQ8elcNPwjbgPWU-25" edge="1">
          <mxGeometry width="50" height="50" relative="1" as="geometry">
            <mxPoint x="380" y="500" as="sourcePoint" />
            <mxPoint x="470" y="490" as="targetPoint" />
          </mxGeometry>
        </mxCell>
        <mxCell id="yMxyKzQ8elcNPwjbgPWU-27" value="extend" style="endArrow=none;dashed=1;html=1;rounded=0;startArrow=classic;startFill=1;endFill=0;exitX=0.5;exitY=1;exitDx=0;exitDy=0;" parent="1" source="yMxyKzQ8elcNPwjbgPWU-7" target="yMxyKzQ8elcNPwjbgPWU-6" edge="1">
          <mxGeometry width="50" height="50" relative="1" as="geometry">
            <mxPoint x="347" y="520" as="sourcePoint" />
            <mxPoint x="414" y="490" as="targetPoint" />
          </mxGeometry>
        </mxCell>
        <mxCell id="wWizHaUcwNJsy219Fgrh-1" value="include" style="endArrow=classic;dashed=1;html=1;rounded=0;startArrow=none;startFill=0;endFill=1;exitX=1.008;exitY=0.35;exitDx=0;exitDy=0;exitPerimeter=0;entryX=0;entryY=0.625;entryDx=0;entryDy=0;entryPerimeter=0;" edge="1" parent="1" source="yMxyKzQ8elcNPwjbgPWU-4" target="yMxyKzQ8elcNPwjbgPWU-21">
          <mxGeometry width="50" height="50" relative="1" as="geometry">
            <mxPoint x="640" y="94" as="sourcePoint" />
            <mxPoint x="707" y="60" as="targetPoint" />
          </mxGeometry>
        </mxCell>
      </root>
    </mxGraphModel>
  </diagram>
</mxfile>
